General                          : ChattChitto RG - Movies [R2L]
==========
Complete name                    : I Am Number Four 2011 720p BRRip H264 [ChattChitto RG]
Format profile                   : Base Media
Codec ID                         : isom
File size                        : 2.03 GiB
Duration                         : 1h 45mn
Overall bit rate                 : 2 763 Kbps
Encoded date                     : UTC 2011-05-11 05:56:08

Video
==========
ID                               : 1
Format                           : AVC
Format/Info                      : Advanced Video Codec
Format profile                   : High@L4.1
Format settings, CABAC           : Yes
Format settings, ReFrames        : 4 frames
Format settings, GOP             : M=1, N=17
Codec ID                         : avc1
Codec ID/Info                    : Advanced Video Coding
Duration                         : 1h 45mn
Bit rate mode                    : Variable
Bit rate                         : 2 400 Kbps
Maximum bit rate                 : 15.3 Mbps
Width                            : 1 280 pixels
Height                           : 688 pixels
Display aspect ratio             : 1.860
Frame rate mode                  : Constant
Frame rate                       : 23.976 fps
Color space                      : YUV
Chroma subsampling               : 4:2:0
Bit depth                        : 8 bits
Scan type                        : Progressive
Bits/(Pixel*Frame)               : 0.114
Stream size                      : 1.77 GiB (87%)
Writing library                  : x264 core 114 r1924 08d04a4
Encoded date                     : UTC 2011-05-09 19:57:57

Audio
ID                               : 2
Format                           : AAC
Format/Info                      : Advanced Audio Codec
Format profile                   : LC
Codec ID                         : 40
Duration                         : 1h 45mn
Bit rate mode                    : Variable
Bit rate                         : 352.8 Kbps
Maximum bit rate                 : 540 Kbps
Channel(s)                       : 6 channels
Channel positions                : Front: L C R, Side: L R, LFE
Sampling rate                    : 48.0 KHz
Compression mode                 : Lossy
Stream size                      : 270 MiB (13%)
Encoded date                     : UTC 2011-05-11 05:56:39

Subtitles                        : English | Spanish | French


----------------------------------------------------
IMDB Link: http://www.imdb.com/title/tt1464540/
----------------------------------------------------



Screen Shots:
==============    
http://chattchitto.net/chattchittorg/movies/brrip/2011/i_am_number_four/1.png 
http://chattchitto.net/chattchittorg/movies/brrip/2011/i_am_number_four/2.png 
http://chattchitto.net/chattchittorg/movies/brrip/2011/i_am_number_four/3.png 
http://chattchitto.net/chattchittorg/movies/brrip/2011/i_am_number_four/4.png 
http://chattchitto.net/chattchittorg/movies/brrip/2011/i_am_number_four/5.png 
http://chattchitto.net/chattchittorg/movies/brrip/2011/i_am_number_four/6.png 
http://chattchitto.net/chattchittorg/movies/brrip/2011/i_am_number_four/7.png



ScreenShots Comparison:
=========================  
http://screenshotcomparison.com/comparison/52846



Plot:
======
John is an extraordinary teen, masking his true identity and passing as a typical high school student to elude a deadly enemy seeking to destroy him. Three like him have already been killed ... he is Number Four.



Release Info:
==============
original name .... : I Am Number Four 2011 720p BRRip H264 [ChattChitto RG]
ripper.............: TWiZTED
encoder............: Recalled2Life (R2L)
video codec........: H264/.MP4
video bitrate......: 2400
audio codec........: AAC-LC
aspect ratio.......: 1.860
resolution.........: 1280 x 688
genre..............: Action | Sci-Fi | Thriller
runtime............: 1h 45mn
language...........: English
rating.............: PG-13
subtitles..........: English | French | Spanish
sample.............: Yes
2ch Audio..........: 2ch Audio for XBox Viewers
Compatibility .....: XBox | PS3 | WD Live



Source:
========
I.Am.Number.Four.1080p.BluRay.x264-TWiZTED  THANKS!



Notes:
=======
ChattChitto RG Encourages Burning this Film with ConvertXtoDVD and Playing with VLC media player.
XBox 360 | PS3 | WD Live - Compatible 
Enhanced for your viewing pleasure ;)